<svg width="147" height="58" viewBox="0 0 147 58" fill="none" xmlns="http://www.w3.org/2000/svg">
<g clip-path="url(#clip0_1907_252)">
<path d="M1.43087 1.42411C6.18058 0 10.8447 2.33036 14.7814 4.87649C19.1032 7.7247 23.0827 11.1771 27.704 13.5074C31.9402 15.6652 36.5188 16.3125 40.7978 13.939C43.4508 12.4717 45.6759 10.314 47.9438 8.32887C50.2116 6.34375 52.6507 4.22917 55.6032 3.36607C61.1659 1.8125 66.3863 6.08482 70.6653 9.0625C75.0299 12.1265 79.8224 15.4062 85.3851 14.4137C90.8195 13.4643 95.3553 9.5372 99.7626 6.47321C104.084 3.40923 109.091 0.0863094 114.611 1.12202C119.96 2.11458 124.495 5.78274 128.988 8.63095C132.882 11.0908 137.632 13.7664 142.382 12.4717C143.537 12.1265 144.649 11.5655 145.634 10.875C146.147 10.5298 145.676 9.66667 145.163 10.0119C143.109 11.4792 140.713 12.0833 138.231 11.6949C135.749 11.3065 133.438 10.0982 131.256 8.84673C126.592 6.12798 122.313 2.58929 117.221 0.81994C105.924 -3.10714 97.9227 8.50149 88.5516 12.4717C86.1126 13.5074 83.4168 14.0253 80.8066 13.4211C78.068 12.817 75.629 11.3065 73.3183 9.75298C68.9109 6.7753 64.3324 2.54613 58.7697 2.11458C52.8646 1.63988 48.4572 6.73214 44.3066 10.2277C42.1243 12.0833 39.7281 13.8527 36.8611 14.4137C34.5932 14.8452 32.2826 14.4137 30.1431 13.5938C25.3506 11.7381 21.3283 8.28571 17.1349 5.39435C13.4121 2.7619 9.1331 0 4.42618 0C3.31364 0 2.24389 0.172619 1.17413 0.474702C0.575069 0.647321 0.83181 1.59673 1.43087 1.42411Z" fill="white"/>
<path d="M1.43048 23.2606C6.18019 21.8365 10.8443 24.1669 14.781 26.713C19.1028 29.5612 23.0823 32.9704 27.7036 35.344C31.9399 37.5017 36.5184 38.149 40.7974 35.7755C43.4504 34.3082 45.6755 32.1505 47.9434 30.1654C50.2113 28.1803 52.6503 26.0657 55.6028 25.2026C61.1655 23.649 66.3859 27.9213 70.6649 30.899C75.0295 33.963 79.822 37.2428 85.3848 36.2502C90.8191 35.3008 95.3549 31.3737 99.7622 28.3097C104.084 25.2457 109.09 21.9228 114.61 22.9585C119.959 23.9511 124.495 27.6193 128.988 30.4675C132.882 32.9273 137.632 35.6029 142.381 34.3082C143.537 33.963 144.649 33.402 145.633 32.7115C146.147 32.3663 145.676 31.5032 145.163 31.8484C143.109 33.3157 140.712 33.9198 138.231 33.5315C135.749 33.1431 133.438 31.9347 131.256 30.6832C126.634 27.9645 122.355 24.4258 117.263 22.6565C105.967 18.7294 97.9651 30.338 88.594 34.3082C86.155 35.344 83.4592 35.8618 80.849 35.2576C78.1104 34.6535 75.6714 33.1431 73.3607 31.5895C68.9533 28.6118 64.3748 24.3826 58.8121 23.9511C52.907 23.4764 48.4996 28.5687 44.349 32.0642C42.1667 33.9199 39.7705 35.6892 36.9035 36.2502C34.6356 36.6818 32.325 36.2502 30.1855 35.4303C25.393 33.5746 21.3707 30.1222 17.1773 27.2309C13.4545 24.6416 9.1755 21.8797 4.46858 21.8797C3.35604 21.8797 2.2435 22.0523 1.21653 22.3544C0.57468 22.4838 0.831421 23.4332 1.43048 23.2606Z" fill="white"/>
<path d="M2.41466 43.9747C7.16436 42.5506 11.8285 44.8809 15.7652 47.4271C20.087 50.2321 24.0665 53.6845 28.6878 56.0149C32.924 58.1726 37.5026 58.8199 41.7816 56.4464C44.4346 54.9791 46.6597 52.8214 48.9276 50.8363C51.1954 48.8512 53.6345 46.7366 56.587 45.8735C62.1497 44.3199 67.3701 48.5922 71.6491 51.5699C76.0137 54.6339 80.8062 57.9137 86.3689 56.9211C91.8033 55.9717 96.339 52.0446 100.746 48.9806C105.068 45.9166 110.075 42.5937 115.595 43.6294C120.943 44.622 125.479 48.2902 129.972 51.1384C133.866 53.5982 138.616 56.2738 143.365 54.9791C144.521 54.6339 145.633 54.0729 146.617 53.3824C147.131 53.0372 146.66 52.1741 146.147 52.5193C144.093 53.9866 141.697 54.5907 139.215 54.2024C136.733 53.814 134.422 52.6056 132.24 51.3541C127.619 48.6354 123.34 45.0967 118.248 43.3274C106.951 39.4003 98.9492 51.0089 89.5782 54.9791C87.1392 56.0149 84.4434 56.4896 81.8332 55.9285C79.0946 55.3244 76.6556 53.814 74.3449 52.2604C69.9375 49.2827 65.359 45.0535 59.7962 44.622C53.8912 44.1473 49.4838 49.2396 45.3332 52.7351C43.1509 54.5907 40.7546 56.3601 37.8877 56.9211C35.6198 57.3527 33.3091 56.9211 31.1696 56.1012C26.3771 54.2455 22.3121 50.7931 18.1614 47.9018C14.4387 45.3125 10.1597 42.5506 5.45276 42.5506C4.34021 42.5506 3.22767 42.7232 2.20071 43.0253C1.55885 43.241 1.81559 44.1473 2.41466 43.9747Z" fill="white"/>
</g>
<defs>
<clipPath id="clip0_1907_252">
<rect width="146" height="58" fill="white" transform="translate(0.831421)"/>
</clipPath>
</defs>
</svg>
